<svg width="32" height="32" viewBox="0 0 32 32" fill="none" xmlns="http://www.w3.org/2000/svg">
<path d="M16 2C13.2311 2 10.5243 2.82109 8.22202 4.35943C5.91973 5.89777 4.12532 8.08427 3.06569 10.6424C2.00607 13.2006 1.72882 16.0155 2.26901 18.7313C2.80921 21.447 4.14258 23.9416 6.10051 25.8995C8.05845 27.8574 10.553 29.1908 13.2687 29.731C15.9845 30.2712 18.7994 29.9939 21.3576 28.9343C23.9157 27.8747 26.1022 26.0803 27.6406 23.778C29.1789 21.4757 30 18.7689 30 16C30 12.287 28.525 8.72601 25.8995 6.1005C23.274 3.475 19.713 2 16 2ZM16 7C16.89 7 17.7601 7.26392 18.5001 7.75839C19.2401 8.25285 19.8169 8.95566 20.1575 9.77792C20.4981 10.6002 20.5872 11.505 20.4135 12.3779C20.2399 13.2508 19.8113 14.0526 19.182 14.682C18.5527 15.3113 17.7508 15.7399 16.8779 15.9135C16.005 16.0872 15.1002 15.9981 14.2779 15.6575C13.4557 15.3169 12.7529 14.7401 12.2584 14.0001C11.7639 13.26 11.5 12.39 11.5 11.5C11.4987 10.9087 11.6142 10.3229 11.8399 9.77637C12.0655 9.22981 12.397 8.73321 12.8151 8.31508C13.2332 7.89695 13.7298 7.56554 14.2764 7.33986C14.8229 7.11418 15.4087 6.99868 16 7ZM24 24.92C21.807 26.9023 18.9562 27.9999 16 27.9999C13.0439 27.9999 10.193 26.9023 8.00001 24.92V24.34C7.96214 22.9708 8.46602 21.6419 9.40221 20.6421C10.3384 19.6423 11.6313 19.0522 13 19H19C20.3625 19.0547 21.6493 19.6414 22.5841 20.6342C23.5189 21.6269 24.0273 22.9466 24 24.31V24.92Z" fill="#566885"/>
</svg>
