<svg width="13" height="13" viewBox="0 0 13 13" fill="none" xmlns="http://www.w3.org/2000/svg">
<path d="M4.08571 0.927599C4.08572 0.4153 4.50102 0 5.01332 0H12.0724C12.5847 0 13 0.415302 13 0.927602V0.927602C13 1.4399 12.5847 1.8552 12.0724 1.8552H5.01332C4.50102 1.8552 4.08571 1.4399 4.08571 0.927599V0.927599ZM1.91901e-06 0.940117C2.96784e-06 0.43004 0.411849 0.0156702 0.921917 0.012553L2.03818 0.00573116C2.55267 0.0025869 2.97143 0.418793 2.97143 0.933299V0.933299C2.97143 1.44338 2.55958 1.85775 2.04951 1.86086L0.933254 1.86768C0.418758 1.87083 8.61077e-07 1.45462 1.91901e-06 0.940117V0.940117Z" fill="#566885"/>
<path d="M4.08571 6.4932C4.08571 5.9809 4.4215 5.5656 4.83571 5.5656H12.25C12.6642 5.5656 13 5.98091 13 6.49321C13 7.0055 12.6642 7.4208 12.25 7.4208H4.83571C4.4215 7.4208 4.08571 7.0055 4.08571 6.4932ZM0 6.5068C1.04971e-06 5.9963 0.333529 5.58175 0.746285 5.57923L2.21773 5.57024C2.63338 5.5677 2.97143 5.98373 2.97143 6.49782C2.97143 7.00832 2.6379 7.42287 2.22514 7.42539L0.753696 7.43439C0.338044 7.43693 -1.05707e-06 7.02089 0 6.5068Z" fill="#566885"/>
<path d="M4.08571 12.0588C4.08571 11.5465 4.4215 11.1312 4.83571 11.1312H12.25C12.6642 11.1312 13 11.5465 13 12.0588C13 12.5711 12.6642 12.9864 12.25 12.9864H4.83571C4.4215 12.9864 4.08571 12.5711 4.08571 12.0588ZM0 12.0724C1.04971e-06 11.5619 0.333529 11.1474 0.746285 11.1448L2.21773 11.1358C2.63338 11.1333 2.97143 11.5493 2.97143 12.0634C2.97143 12.5739 2.6379 12.9885 2.22514 12.991L0.753696 13C0.338044 13.0025 -1.05707e-06 12.5865 0 12.0724Z" fill="#566885"/>
</svg>
