<svg width="13" height="13" viewBox="0 0 13 13" fill="none" xmlns="http://www.w3.org/2000/svg">
<path fill-rule="evenodd" clip-rule="evenodd" d="M4.55 1C4.55 0.447715 4.99772 0 5.55 0H7.45C8.00229 0 8.45 0.447715 8.45 1V2.9C8.45 3.45229 8.00229 3.9 7.45 3.9H5.55C4.99771 3.9 4.55 3.45228 4.55 2.9V1ZM0 5.55C0 4.99771 0.447715 4.55 1 4.55H2.9C3.45229 4.55 3.9 4.99772 3.9 5.55V7.45C3.9 8.00229 3.45228 8.45 2.9 8.45H1C0.447715 8.45 0 8.00229 0 7.45V5.55ZM0 10.1C0 9.54772 0.447715 9.1 1 9.1H2.9C3.45229 9.1 3.9 9.54772 3.9 10.1V12C3.9 12.5523 3.45228 13 2.9 13H1C0.447715 13 0 12.5523 0 12V10.1ZM5.55 4.55C4.99772 4.55 4.55 4.99771 4.55 5.55V7.45C4.55 8.00229 4.99771 8.45 5.55 8.45H7.45C8.00229 8.45 8.45 8.00229 8.45 7.45V5.55C8.45 4.99772 8.00229 4.55 7.45 4.55H5.55ZM10.1 0C9.54772 0 9.1 0.447715 9.1 1V2.9C9.1 3.45228 9.54772 3.9 10.1 3.9H12C12.5523 3.9 13 3.45229 13 2.9V1C13 0.447715 12.5523 0 12 0H10.1ZM9.1 5.55C9.1 4.99771 9.54772 4.55 10.1 4.55H12C12.5523 4.55 13 4.99772 13 5.55V7.45C13 8.00229 12.5523 8.45 12 8.45H10.1C9.54772 8.45 9.1 8.00229 9.1 7.45V5.55ZM10.1 9.1C9.54772 9.1 9.1 9.54772 9.1 10.1V12C9.1 12.5523 9.54772 13 10.1 13H12C12.5523 13 13 12.5523 13 12V10.1C13 9.54772 12.5523 9.1 12 9.1H10.1ZM0 1C0 0.447715 0.447715 0 1 0H2.9C3.45229 0 3.9 0.447715 3.9 1V2.9C3.9 3.45229 3.45228 3.9 2.9 3.9H1C0.447715 3.9 0 3.45228 0 2.9V1ZM5.55 9.1C4.99772 9.1 4.55 9.54772 4.55 10.1V12C4.55 12.5523 4.99771 13 5.55 13H7.45C8.00229 13 8.45 12.5523 8.45 12V10.1C8.45 9.54772 8.00229 9.1 7.45 9.1H5.55Z" fill="#566885"/>
</svg>
